<svg xmlns="http://www.w3.org/2000/svg" viewBox="-745 -20 1490 850"><polygon points="-92,70 -330,130 -645,580 -520,665 -330,370 -330,750 330,750 330,370 520,665 645,580 330,130 92,70 65,105 0,125 -65,105" fill="#abb3a4" stroke="#27382f" stroke-width="2.2" stroke-linejoin="round" /><polyline points="-330,130 -330,370" fill="none" stroke="#27382f" stroke-width="2.2" stroke-linejoin="round" /><polyline points="-619,543 -492,621" fill="none" stroke="#27382f" stroke-width="2.2" stroke-linejoin="round" /><polyline points="-611,535 -485,613" fill="none" stroke="#27382f" stroke-width="2.2" stroke-linejoin="round" stroke-dasharray="8 7"/><polyline points="-320,385 -320,738" fill="none" stroke="#27382f" stroke-width="2.2" stroke-linejoin="round" stroke-dasharray="8 7"/><polyline points="330,130 330,370" fill="none" stroke="#27382f" stroke-width="2.2" stroke-linejoin="round" /><polyline points="619,543 492,621" fill="none" stroke="#27382f" stroke-width="2.2" stroke-linejoin="round" /><polyline points="611,535 485,613" fill="none" stroke="#27382f" stroke-width="2.2" stroke-linejoin="round" stroke-dasharray="8 7"/><polyline points="320,385 320,738" fill="none" stroke="#27382f" stroke-width="2.2" stroke-linejoin="round" stroke-dasharray="8 7"/><polyline points="-322,738 322,738" fill="none" stroke="#27382f" stroke-width="2.2" stroke-linejoin="round" stroke-dasharray="8 7"/><polygon points="-92,70 -55,25 0,60 0,110 -40,145" fill="#abb3a4" stroke="#27382f" stroke-width="2.2" stroke-linejoin="round" /><polygon points="92,70 55,25 0,60 0,110 40,145" fill="#abb3a4" stroke="#27382f" stroke-width="2.2" stroke-linejoin="round" /><polyline points="-17,126 -17,750" fill="none" stroke="#27382f" stroke-width="2.2" stroke-linejoin="round" /><polyline points="17,126 17,750" fill="none" stroke="#27382f" stroke-width="2.2" stroke-linejoin="round" /><polyline points="-23,132 -23,738" fill="none" stroke="#27382f" stroke-width="2.2" stroke-linejoin="round" stroke-dasharray="8 7"/><polyline points="23,132 23,738" fill="none" stroke="#27382f" stroke-width="2.2" stroke-linejoin="round" stroke-dasharray="8 7"/><polygon points="-280,235 -100,235 -100,445 -280,445" fill="#abb3a4" stroke="#27382f" stroke-width="2.2" stroke-linejoin="round" /><polyline points="-277,240 -277,442 -103,442 -103,240" fill="none" stroke="#27382f" stroke-width="2.2" stroke-linejoin="round" stroke-dasharray="8 7"/><polyline points="-280,255 -100,255" fill="none" stroke="#27382f" stroke-width="2.2" stroke-linejoin="round" /><polyline points="-273,260 -107,260" fill="none" stroke="#27382f" stroke-width="2.2" stroke-linejoin="round" stroke-dasharray="8 7"/><polygon points="100,235 280,235 280,445 100,445" fill="#abb3a4" stroke="#27382f" stroke-width="2.2" stroke-linejoin="round" /><polyline points="103,240 103,442 277,442 277,240" fill="none" stroke="#27382f" stroke-width="2.2" stroke-linejoin="round" stroke-dasharray="8 7"/><polyline points="100,255 280,255" fill="none" stroke="#27382f" stroke-width="2.2" stroke-linejoin="round" /><polyline points="107,260 273,260" fill="none" stroke="#27382f" stroke-width="2.2" stroke-linejoin="round" stroke-dasharray="8 7"/><circle cx="0" cy="190" r="6" fill="#27382f"/><circle cx="0" cy="290" r="6" fill="#27382f"/><circle cx="0" cy="390" r="6" fill="#27382f"/><circle cx="0" cy="490" r="6" fill="#27382f"/><circle cx="0" cy="590" r="6" fill="#27382f"/><circle cx="0" cy="690" r="6" fill="#27382f"/><circle cx="-545" cy="630" r="6" fill="#27382f"/><circle cx="545" cy="630" r="6" fill="#27382f"/></svg>